<svg xmlns="http://www.w3.org/2000/svg" version="1.1" xmlns:xlink="http://www.w3.org/1999/xlink" xmlns:svgjs="http://svgjs.dev/svgjs" width="2000" height="1189" viewBox="0 0 2000 1189"><g transform="matrix(1,0,0,1,-2.827747754166012,-0.2441058651121466)"><svg viewBox="0 0 338 201" data-background-color="#0093fb" preserveAspectRatio="xMidYMid meet" height="1189" width="2000" xmlns="http://www.w3.org/2000/svg" xmlns:xlink="http://www.w3.org/1999/xlink"><g id="tight-bounds" transform="matrix(1,0,0,1,0.4778893704540508,0.04126600411063919)"><svg viewBox="0 0 337.0442212590919 200" height="200" width="337.0442212590919"><g><svg viewBox="0 0 426.20297092478324 252.9062621709532" height="200" width="337.0442212590919"><g><rect width="5.5839710818945605" height="252.9062621709532" x="142.1747583216789" y="0" fill="#000000" opacity="1" stroke-width="0" stroke="transparent" fill-opacity="1" class="rect-yte-0" data-fill-palette-color="primary" rx="1%" id="yte-0" data-palette-color="#ffffff"></rect></g><g transform="matrix(1,0,0,1,162.37645474884718,0.629120055151617)"><svg viewBox="0 0 263.82651617593604 251.64802206064996" height="251.64802206064996" width="263.82651617593604"><g id="textblocktransform"><svg viewBox="0 0 263.82651617593604 251.64802206064996" height="251.64802206064996" width="263.82651617593604" id="textblock"><g><svg viewBox="0 0 263.82651617593604 198.764" height="198.764" width="263.82651617593604"><g transform="matrix(1,0,0,1,0,0)"><svg width="263.82651617593604" viewBox="1.629999999999999 -33.48 184.72 134.56" height="198.764" data-palette-color="#ffffff"><svg></svg><svg></svg><svg></svg><g class="wordmark-text-0" data-fill-palette-color="primary" id="text-0"><path d="M17.05 0h-10.45v-3.43h10.05c2.167 0 3.703-0.46 4.61-1.38 0.913-0.927 1.37-2.207 1.37-3.84v0-0.9c0-1.667-0.463-2.96-1.39-3.88-0.927-0.913-2.54-1.37-4.84-1.37v0h-9.77v-3.27h9.72c2.053 0 3.517-0.447 4.39-1.34 0.873-0.893 1.31-2.133 1.31-3.72v0-0.45c0-1.567-0.42-2.787-1.26-3.66-0.84-0.873-2.33-1.31-4.47-1.31v0h-9.79v-3.4h10.17c3.4 0 5.833 0.673 7.3 2.02 1.467 1.353 2.2 3.253 2.2 5.7v0 0.5c0 1.953-0.467 3.487-1.4 4.6-0.933 1.12-2.383 1.787-4.35 2v0l-0.02 0.15c2.247 0.333 3.88 1.117 4.9 2.35 1.013 1.233 1.52 2.953 1.52 5.16v0 1.02c0 2.647-0.767 4.717-2.3 6.21-1.533 1.493-4.033 2.24-7.5 2.24zM7.88 0h-4.1v-31.95h4.1zM36.5 0h-4.02v-33.13h4.02zM53.47 0.55v0c-3.713 0-6.513-0.91-8.4-2.73-1.88-1.813-2.82-4.413-2.82-7.8v0-4.35c0-3.433 0.877-6.077 2.63-7.93 1.747-1.86 4.303-2.79 7.67-2.79v0c2.267 0 4.157 0.42 5.67 1.26 1.52 0.84 2.663 2.037 3.43 3.59 0.767 1.547 1.15 3.397 1.15 5.55v0 0.9c0 0.533-0.02 1.067-0.06 1.6-0.047 0.533-0.1 1.057-0.16 1.57v0h-3.73c0.033-0.8 0.053-1.557 0.06-2.27 0.007-0.72 0.01-1.38 0.01-1.98v0c0-1.48-0.237-2.733-0.71-3.76-0.473-1.027-1.18-1.81-2.12-2.35-0.947-0.54-2.127-0.81-3.54-0.81v0c-2.1 0-3.677 0.607-4.73 1.82-1.047 1.22-1.57 2.963-1.57 5.23v0 2.32l0.02 0.5v2.33c0 1.013 0.15 1.93 0.45 2.75 0.3 0.813 0.773 1.517 1.42 2.11 0.64 0.593 1.457 1.043 2.45 1.35 0.987 0.307 2.167 0.46 3.54 0.46v0c1.58 0 3.053-0.207 4.42-0.62 1.367-0.42 2.65-0.987 3.85-1.7v0l-0.38 3.5c-1.08 0.68-2.337 1.227-3.77 1.64-1.433 0.407-3.027 0.61-4.78 0.61zM61.72-10.58h-17.34v-3.05h17.34zM88.9 0h-4.85l-9.65-11.38h-2.57v-3.15h2.57l9.25-9.87h4.8l-11.07 11.77v-0.97zM72.23 0h-4.03v-33.13h4.03zM96.97 0h-4.05v-24.4h4.05zM94.95-28.4v0c-0.833 0-1.453-0.22-1.86-0.66-0.413-0.447-0.62-1.053-0.62-1.82v0-0.12c0-0.787 0.207-1.397 0.62-1.83 0.407-0.433 1.027-0.65 1.86-0.65v0c0.833 0 1.46 0.217 1.88 0.65 0.413 0.433 0.62 1.043 0.62 1.83v0 0.12c0 0.787-0.207 1.397-0.62 1.83-0.42 0.433-1.047 0.65-1.88 0.65zM124.05 0h-4.05v-15.18c0-1.313-0.18-2.443-0.54-3.39-0.36-0.953-0.943-1.693-1.75-2.22-0.807-0.527-1.91-0.79-3.31-0.79v0c-1.287 0-2.4 0.243-3.34 0.73-0.94 0.48-1.7 1.133-2.28 1.96-0.587 0.827-0.997 1.767-1.23 2.82v0l-0.72-2.88h0.87c0.267-1.1 0.733-2.103 1.4-3.01 0.667-0.913 1.563-1.64 2.69-2.18 1.12-0.54 2.497-0.81 4.13-0.81v0c1.94 0 3.503 0.367 4.69 1.1 1.193 0.733 2.063 1.787 2.61 3.16 0.553 1.373 0.83 3.06 0.83 5.06v0zM107.72 0h-4.05v-24.4h4.05l-0.17 5.85 0.17 0.23zM139.83-7.3v0c-3.32 0-5.867-0.723-7.64-2.17-1.773-1.453-2.66-3.53-2.66-6.23v0-0.62c0-1.687 0.343-3.157 1.03-4.41 0.693-1.247 1.8-2.223 3.32-2.93 1.513-0.713 3.497-1.103 5.95-1.17v0l12.45-0.4v3.2l-7.35-0.25-0.03 0.18c1.153 0.233 2.097 0.633 2.83 1.2 0.733 0.567 1.277 1.273 1.63 2.12 0.36 0.853 0.54 1.847 0.54 2.98v0 0.55c0 2.58-0.85 4.55-2.55 5.91-1.7 1.36-4.207 2.04-7.52 2.04zM139.65 6.15v0h0.57c1.5 0 2.79-0.113 3.87-0.34 1.073-0.22 1.903-0.573 2.49-1.06 0.58-0.48 0.87-1.12 0.87-1.92v0-0.1c0-0.933-0.337-1.647-1.01-2.14-0.673-0.493-1.83-0.817-3.47-0.97v0l-6.89-0.62 1.14-0.05c-0.927 0.133-1.747 0.35-2.46 0.65-0.707 0.3-1.26 0.697-1.66 1.19-0.4 0.493-0.6 1.107-0.6 1.84v0 0.05c0 0.847 0.293 1.53 0.88 2.05 0.58 0.513 1.403 0.88 2.47 1.1 1.067 0.213 2.333 0.32 3.8 0.32zM140.15 9.38h-0.72c-2.2 0-4.097-0.19-5.69-0.57-1.593-0.373-2.827-0.98-3.7-1.82-0.88-0.84-1.32-1.97-1.32-3.39v0-0.1c0-1 0.24-1.833 0.72-2.5 0.473-0.667 1.113-1.193 1.92-1.58 0.813-0.38 1.72-0.637 2.72-0.77v0l-0.03-0.15c-1.367-0.233-2.373-0.637-3.02-1.21-0.653-0.58-0.98-1.327-0.98-2.24v0-0.03c0-0.633 0.147-1.173 0.44-1.62 0.293-0.453 0.733-0.813 1.32-1.08 0.593-0.267 1.35-0.433 2.27-0.5v0-0.5l4.64 1.18-1.89-0.05c-1.133 0.013-1.92 0.15-2.36 0.41-0.427 0.26-0.64 0.647-0.64 1.16v0 0.03c0 0.547 0.307 0.963 0.92 1.25 0.62 0.28 1.67 0.503 3.15 0.67v0l5.93 0.6c2.58 0.267 4.463 0.89 5.65 1.87 1.18 0.973 1.77 2.41 1.77 4.31v0 0.13c0 1.513-0.45 2.753-1.35 3.72-0.9 0.967-2.173 1.67-3.82 2.11-1.653 0.447-3.63 0.67-5.93 0.67zM139.78-10.3v0c1.4 0 2.56-0.203 3.48-0.61 0.927-0.413 1.627-1.03 2.1-1.85 0.48-0.827 0.72-1.84 0.72-3.04v0-0.6c0-1.167-0.23-2.16-0.69-2.98-0.46-0.813-1.147-1.433-2.06-1.86-0.92-0.427-2.07-0.64-3.45-0.64v0h-0.16c-1.5 0-2.72 0.23-3.66 0.69-0.94 0.46-1.623 1.103-2.05 1.93-0.42 0.82-0.63 1.78-0.63 2.88v0 0.58c0 1.2 0.237 2.207 0.71 3.02 0.473 0.82 1.183 1.437 2.13 1.85 0.953 0.42 2.14 0.63 3.56 0.63zM165.95 0.55v0c-3.713 0-6.513-0.91-8.4-2.73-1.887-1.813-2.83-4.413-2.83-7.8v0-4.35c0-3.433 0.877-6.077 2.63-7.93 1.747-1.86 4.307-2.79 7.68-2.79v0c2.267 0 4.157 0.42 5.67 1.26 1.52 0.84 2.663 2.037 3.43 3.59 0.767 1.547 1.15 3.397 1.15 5.55v0 0.9c0 0.533-0.023 1.067-0.07 1.6-0.04 0.533-0.093 1.057-0.16 1.57v0h-3.72c0.033-0.8 0.053-1.557 0.06-2.27 0.007-0.72 0.01-1.38 0.01-1.98v0c0-1.48-0.237-2.733-0.71-3.76-0.48-1.027-1.19-1.81-2.13-2.35-0.94-0.54-2.117-0.81-3.53-0.81v0c-2.1 0-3.677 0.607-4.73 1.82-1.053 1.22-1.58 2.963-1.58 5.23v0 2.32l0.03 0.5v2.33c0 1.013 0.15 1.93 0.45 2.75 0.3 0.813 0.77 1.517 1.41 2.11 0.647 0.593 1.463 1.043 2.45 1.35 0.993 0.307 2.173 0.46 3.54 0.46v0c1.58 0 3.057-0.207 4.43-0.62 1.367-0.42 2.65-0.987 3.85-1.7v0l-0.38 3.5c-1.08 0.68-2.34 1.227-3.78 1.64-1.427 0.407-3.017 0.61-4.77 0.61zM174.2-10.58h-17.35v-3.05h17.35z" fill="#000000" fill-rule="nonzero" stroke="none" stroke-width="1" stroke-linecap="butt" stroke-linejoin="miter" stroke-miterlimit="10" stroke-dasharray="" stroke-dashoffset="0" font-family="none" font-weight="none" font-size="none" text-anchor="none" style="mix-blend-mode: normal" data-fill-palette-color="primary" opacity="1"></path><path transform="translate(0,45.85)" d="M15.35 0h-4.15v-31.28h4.15zM24.93-28.48h-23.3v-3.47h23.3zM36.6 0.55v0c-3.713 0-6.513-0.91-8.4-2.73-1.88-1.813-2.82-4.413-2.82-7.8v0-4.35c0-3.433 0.873-6.077 2.62-7.93 1.753-1.86 4.31-2.79 7.67-2.79v0c2.273 0 4.167 0.42 5.68 1.26 1.52 0.84 2.663 2.037 3.43 3.59 0.76 1.547 1.14 3.397 1.14 5.55v0 0.9c0 0.533-0.02 1.067-0.06 1.6-0.04 0.533-0.093 1.057-0.16 1.57v0h-3.72c0.033-0.8 0.053-1.557 0.06-2.27 0.007-0.72 0.01-1.38 0.01-1.98v0c0-1.48-0.237-2.733-0.71-3.76-0.473-1.027-1.183-1.81-2.13-2.35-0.94-0.54-2.12-0.81-3.54-0.81v0c-2.1 0-3.673 0.607-4.72 1.82-1.047 1.22-1.57 2.963-1.57 5.23v0 2.32l0.02 0.5v2.33c0 1.013 0.15 1.93 0.45 2.75 0.3 0.813 0.77 1.517 1.41 2.11 0.647 0.593 1.463 1.043 2.45 1.35 0.993 0.307 2.173 0.46 3.54 0.46v0c1.587 0 3.06-0.207 4.42-0.62 1.373-0.42 2.66-0.987 3.86-1.7v0l-0.38 3.5c-1.08 0.68-2.337 1.227-3.77 1.64-1.433 0.407-3.027 0.61-4.78 0.61zM44.85-10.58h-17.35v-3.05h17.35zM72.03 0h-4.85l-9.65-11.38h-2.58v-3.15h2.58l9.25-9.87h4.8l-11.08 11.77v-0.97zM55.35 0h-4.02v-33.13h4.02zM96.42 0h-4.04v-15.18c0-1.313-0.18-2.443-0.54-3.39-0.36-0.953-0.943-1.693-1.75-2.22-0.807-0.527-1.91-0.79-3.31-0.79v0c-1.287 0-2.4 0.243-3.34 0.73-0.94 0.48-1.703 1.133-2.29 1.96-0.58 0.827-0.99 1.767-1.23 2.82v0l-0.72-2.88h0.88c0.26-1.1 0.723-2.103 1.39-3.01 0.667-0.913 1.563-1.64 2.69-2.18 1.127-0.54 2.507-0.81 4.14-0.81v0c1.933 0 3.497 0.367 4.69 1.1 1.193 0.733 2.063 1.787 2.61 3.16 0.547 1.373 0.82 3.06 0.82 5.06v0zM80.1 0h-4.05v-24.4h4.05l-0.18 5.85 0.18 0.23zM106.83 0h-4.05v-24.4h4.05zM104.8-28.4v0c-0.833 0-1.453-0.22-1.86-0.66-0.407-0.447-0.61-1.053-0.61-1.82v0-0.12c0-0.787 0.203-1.397 0.61-1.83 0.407-0.433 1.027-0.65 1.86-0.65v0c0.833 0 1.46 0.217 1.88 0.65 0.413 0.433 0.62 1.043 0.62 1.83v0 0.12c0 0.787-0.207 1.397-0.62 1.83-0.42 0.433-1.047 0.65-1.88 0.65zM121.05 0.55v0c-1.967 0-3.683-0.213-5.15-0.64-1.467-0.427-2.683-0.89-3.65-1.39v0l-0.37-3.75c1.213 0.633 2.55 1.183 4.01 1.65 1.46 0.467 3.113 0.7 4.96 0.7v0c1.887 0 3.303-0.3 4.25-0.9 0.953-0.593 1.43-1.483 1.43-2.67v0-0.28c0-0.767-0.18-1.4-0.54-1.9-0.36-0.5-1.007-0.94-1.94-1.32-0.933-0.387-2.257-0.77-3.97-1.15v0c-2.053-0.453-3.67-0.983-4.85-1.59-1.187-0.607-2.033-1.36-2.54-2.26-0.507-0.9-0.76-2-0.76-3.3v0-0.23c0-2.133 0.74-3.75 2.22-4.85 1.487-1.1 3.72-1.65 6.7-1.65v0c1.92 0 3.583 0.217 4.99 0.65 1.407 0.433 2.56 0.917 3.46 1.45v0l0.38 3.43c-1.087-0.633-2.33-1.16-3.73-1.58-1.4-0.413-2.973-0.62-4.72-0.62v0c-1.267 0-2.293 0.13-3.08 0.39-0.78 0.253-1.347 0.62-1.7 1.1-0.347 0.473-0.52 1.043-0.52 1.71v0 0.2c0 0.733 0.173 1.353 0.52 1.86 0.353 0.507 0.983 0.95 1.89 1.33 0.907 0.373 2.17 0.733 3.79 1.08v0c2.08 0.42 3.733 0.92 4.96 1.5 1.227 0.587 2.107 1.327 2.64 2.22 0.533 0.887 0.8 2.03 0.8 3.43v0 0.43c0 2.3-0.8 4.033-2.4 5.2-1.6 1.167-3.96 1.75-7.08 1.75zM156.18 0h-4.85l-9.65-11.38h-2.58v-3.15h2.58l9.25-9.87h4.8l-11.08 11.77v-0.97zM139.5 0h-4.02v-33.13h4.02zM178 0h-4.02l0.17-5.93-0.15-0.62v-7.78l0.03-1.42c0-1.987-0.507-3.453-1.52-4.4-1.007-0.953-2.6-1.43-4.78-1.43v0c-1.753 0-3.36 0.25-4.82 0.75-1.453 0.5-2.747 1.087-3.88 1.76v0l0.37-3.46c0.633-0.38 1.387-0.757 2.26-1.13 0.88-0.38 1.88-0.693 3-0.94 1.127-0.253 2.367-0.38 3.72-0.38v0c1.747 0 3.233 0.213 4.46 0.64 1.227 0.427 2.217 1.04 2.97 1.84 0.76 0.8 1.317 1.767 1.67 2.9 0.347 1.133 0.52 2.4 0.52 3.8v0zM165.58 0.53v0c-2.42 0-4.277-0.59-5.57-1.77-1.287-1.173-1.93-2.853-1.93-5.04v0-0.72c0-2.253 0.693-3.933 2.08-5.04 1.393-1.107 3.607-1.877 6.64-2.31v0l7.73-1.1 0.22 2.95-7.45 1.07c-1.867 0.267-3.2 0.723-4 1.37-0.8 0.64-1.2 1.583-1.2 2.83v0 0.4c0 1.287 0.397 2.27 1.19 2.95 0.793 0.687 1.98 1.03 3.56 1.03v0c1.4 0 2.6-0.243 3.6-0.73 1-0.48 1.81-1.13 2.43-1.95 0.613-0.813 1.03-1.72 1.25-2.72v0l0.62 2.75h-0.77c-0.233 1.067-0.673 2.057-1.32 2.97-0.64 0.92-1.533 1.66-2.68 2.22-1.153 0.56-2.62 0.84-4.4 0.84z" fill="#000000" fill-rule="nonzero" stroke="none" stroke-width="1" stroke-linecap="butt" stroke-linejoin="miter" stroke-miterlimit="10" stroke-dasharray="" stroke-dashoffset="0" font-family="none" font-weight="none" font-size="none" text-anchor="none" style="mix-blend-mode: normal" data-fill-palette-color="primary" opacity="1"></path><path transform="translate(0,91.7)" d="M7.93-31.95v31.95h-4.15v-31.95zM27.23-31.95v31.95h-4.15v-31.95zM6.15-14.73v-3.5h18.58v3.5zM43.95 0.63v0c-3.5 0-6.153-0.947-7.96-2.84-1.813-1.893-2.72-4.617-2.72-8.17v0-3.72c0-3.533 0.91-6.243 2.73-8.13 1.82-1.88 4.47-2.82 7.95-2.82v0c3.5 0 6.153 0.94 7.96 2.82 1.813 1.887 2.72 4.597 2.72 8.13v0 3.72c0 3.553-0.907 6.277-2.72 8.17-1.807 1.893-4.46 2.84-7.96 2.84zM43.95-2.68v0c2.167 0 3.813-0.64 4.94-1.92 1.127-1.287 1.69-3.137 1.69-5.55v0-4.18c0-2.4-0.563-4.237-1.69-5.51-1.127-1.273-2.773-1.91-4.94-1.91v0c-2.147 0-3.79 0.637-4.93 1.91-1.127 1.273-1.69 3.11-1.69 5.51v0 4.18c0 2.413 0.563 4.263 1.69 5.55 1.14 1.28 2.783 1.92 4.93 1.92zM40.13-28.38v0c-0.72 0-1.263-0.203-1.63-0.61-0.367-0.407-0.55-0.987-0.55-1.74v0-0.17c0-0.747 0.183-1.323 0.55-1.73 0.367-0.4 0.91-0.6 1.63-0.6v0c0.747 0 1.3 0.2 1.66 0.6 0.36 0.407 0.54 0.983 0.54 1.73v0 0.17c0 0.753-0.18 1.333-0.54 1.74-0.36 0.407-0.913 0.61-1.66 0.61zM47.77-28.38v0c-0.733 0-1.277-0.203-1.63-0.61-0.36-0.407-0.54-0.987-0.54-1.74v0-0.17c0-0.747 0.18-1.323 0.54-1.73 0.353-0.4 0.897-0.6 1.63-0.6v0c0.72 0 1.26 0.2 1.62 0.6 0.353 0.407 0.53 0.983 0.53 1.73v0 0.17c0 0.753-0.177 1.333-0.53 1.74-0.36 0.407-0.9 0.61-1.62 0.61zM69.73-7.3v0c-3.32 0-5.867-0.723-7.64-2.17-1.773-1.453-2.66-3.53-2.66-6.23v0-0.62c0-1.687 0.343-3.157 1.03-4.41 0.693-1.247 1.8-2.223 3.32-2.93 1.513-0.713 3.497-1.103 5.95-1.17v0l12.45-0.4v3.2l-7.35-0.25-0.03 0.18c1.153 0.233 2.097 0.633 2.83 1.2 0.733 0.567 1.277 1.273 1.63 2.12 0.36 0.853 0.54 1.847 0.54 2.98v0 0.55c0 2.58-0.85 4.55-2.55 5.91-1.7 1.36-4.207 2.04-7.52 2.04zM69.55 6.15v0h0.58c1.5 0 2.787-0.113 3.86-0.34 1.073-0.22 1.903-0.573 2.49-1.06 0.58-0.48 0.87-1.12 0.87-1.92v0-0.1c0-0.933-0.337-1.647-1.01-2.14-0.673-0.493-1.827-0.817-3.46-0.97v0l-6.9-0.62 1.15-0.05c-0.933 0.133-1.757 0.35-2.47 0.65-0.707 0.3-1.26 0.697-1.66 1.19-0.4 0.493-0.6 1.107-0.6 1.84v0 0.05c0 0.847 0.293 1.53 0.88 2.05 0.58 0.513 1.403 0.88 2.47 1.1 1.067 0.213 2.333 0.32 3.8 0.32zM70.05 9.38h-0.72c-2.2 0-4.097-0.19-5.69-0.57-1.593-0.373-2.827-0.98-3.7-1.82-0.873-0.84-1.31-1.97-1.31-3.39v0-0.1c0-1 0.237-1.833 0.71-2.5 0.473-0.667 1.113-1.193 1.92-1.58 0.813-0.38 1.72-0.637 2.72-0.77v0l-0.03-0.15c-1.367-0.233-2.373-0.637-3.02-1.21-0.653-0.58-0.98-1.327-0.98-2.24v0-0.03c0-0.633 0.147-1.173 0.44-1.62 0.293-0.453 0.733-0.813 1.32-1.08 0.593-0.267 1.35-0.433 2.27-0.5v0-0.5l4.65 1.18-1.9-0.05c-1.133 0.013-1.917 0.15-2.35 0.41-0.433 0.26-0.65 0.647-0.65 1.16v0 0.03c0 0.547 0.307 0.963 0.92 1.25 0.62 0.28 1.67 0.503 3.15 0.67v0l5.93 0.6c2.58 0.267 4.463 0.89 5.65 1.87 1.18 0.973 1.77 2.41 1.77 4.31v0 0.13c0 1.513-0.45 2.753-1.35 3.72-0.9 0.967-2.173 1.67-3.82 2.11-1.653 0.447-3.63 0.67-5.93 0.67zM69.68-10.3v0c1.4 0 2.56-0.203 3.48-0.61 0.927-0.413 1.627-1.03 2.1-1.85 0.48-0.827 0.72-1.84 0.72-3.04v0-0.6c0-1.167-0.23-2.16-0.69-2.98-0.46-0.813-1.147-1.433-2.06-1.86-0.92-0.427-2.07-0.64-3.45-0.64v0h-0.15c-1.5 0-2.723 0.23-3.67 0.69-0.94 0.46-1.623 1.103-2.05 1.93-0.42 0.82-0.63 1.78-0.63 2.88v0 0.58c0 1.2 0.237 2.207 0.71 3.02 0.473 0.82 1.187 1.437 2.14 1.85 0.947 0.42 2.13 0.63 3.55 0.63zM93.48 0.55v0c-1.967 0-3.683-0.213-5.15-0.64-1.467-0.427-2.683-0.89-3.65-1.39v0l-0.38-3.75c1.22 0.633 2.557 1.183 4.01 1.65 1.46 0.467 3.117 0.7 4.97 0.7v0c1.88 0 3.297-0.3 4.25-0.9 0.947-0.593 1.42-1.483 1.42-2.67v0-0.28c0-0.767-0.18-1.4-0.54-1.9-0.353-0.5-0.997-0.94-1.93-1.32-0.933-0.387-2.26-0.77-3.98-1.15v0c-2.047-0.453-3.663-0.983-4.85-1.59-1.18-0.607-2.027-1.36-2.54-2.26-0.507-0.9-0.76-2-0.76-3.3v0-0.23c0-2.133 0.743-3.75 2.23-4.85 1.48-1.1 3.713-1.65 6.7-1.65v0c1.913 0 3.573 0.217 4.98 0.65 1.413 0.433 2.57 0.917 3.47 1.45v0l0.37 3.43c-1.08-0.633-2.32-1.16-3.72-1.58-1.4-0.413-2.977-0.62-4.73-0.62v0c-1.267 0-2.29 0.13-3.07 0.39-0.787 0.253-1.353 0.62-1.7 1.1-0.353 0.473-0.53 1.043-0.53 1.71v0 0.2c0 0.733 0.177 1.353 0.53 1.86 0.347 0.507 0.973 0.95 1.88 1.33 0.913 0.373 2.177 0.733 3.79 1.08v0c2.087 0.42 3.74 0.92 4.96 1.5 1.227 0.587 2.107 1.327 2.64 2.22 0.533 0.887 0.8 2.03 0.8 3.43v0 0.43c0 2.3-0.8 4.033-2.4 5.2-1.6 1.167-3.957 1.75-7.07 1.75zM128.6 0h-4.85l-9.65-11.38h-2.57v-3.15h2.57l9.25-9.87h4.8l-11.07 11.77v-0.97zM111.93 0h-4.03v-33.13h4.03zM140.68 0.63v0c-3.5 0-6.157-0.947-7.97-2.84-1.807-1.893-2.71-4.617-2.71-8.17v0-3.72c0-3.533 0.91-6.243 2.73-8.13 1.813-1.88 4.463-2.82 7.95-2.82v0c3.5 0 6.153 0.94 7.96 2.82 1.807 1.887 2.71 4.597 2.71 8.13v0 3.72c0 3.553-0.903 6.277-2.71 8.17-1.807 1.893-4.46 2.84-7.96 2.84zM140.68-2.68v0c2.167 0 3.81-0.64 4.93-1.92 1.127-1.287 1.69-3.137 1.69-5.55v0-4.18c0-2.4-0.563-4.237-1.69-5.51-1.12-1.273-2.763-1.91-4.93-1.91v0c-2.153 0-3.797 0.637-4.93 1.91-1.133 1.273-1.7 3.11-1.7 5.51v0 4.18c0 2.413 0.567 4.263 1.7 5.55 1.133 1.28 2.777 1.92 4.93 1.92zM161.13 0h-4.03v-33.13h4.03zM186.35 0h-4.02l0.17-5.93-0.15-0.62v-7.78l0.03-1.42c0-1.987-0.507-3.453-1.52-4.4-1.007-0.953-2.6-1.43-4.78-1.43v0c-1.753 0-3.36 0.25-4.82 0.75-1.453 0.5-2.747 1.087-3.88 1.76v0l0.37-3.46c0.633-0.38 1.387-0.757 2.26-1.13 0.88-0.38 1.88-0.693 3-0.94 1.127-0.253 2.367-0.38 3.72-0.38v0c1.747 0 3.233 0.213 4.46 0.64 1.227 0.427 2.217 1.04 2.97 1.84 0.76 0.8 1.317 1.767 1.67 2.9 0.347 1.133 0.52 2.4 0.52 3.8v0zM173.93 0.53v0c-2.42 0-4.277-0.59-5.57-1.77-1.287-1.173-1.93-2.853-1.93-5.04v0-0.72c0-2.253 0.693-3.933 2.08-5.04 1.393-1.107 3.607-1.877 6.64-2.31v0l7.73-1.1 0.22 2.95-7.45 1.07c-1.867 0.267-3.2 0.723-4 1.37-0.8 0.64-1.2 1.583-1.2 2.83v0 0.4c0 1.287 0.397 2.27 1.19 2.95 0.793 0.687 1.98 1.03 3.56 1.03v0c1.4 0 2.6-0.243 3.6-0.73 1-0.48 1.81-1.13 2.43-1.95 0.613-0.813 1.03-1.72 1.25-2.72v0l0.62 2.75h-0.77c-0.233 1.067-0.673 2.057-1.32 2.97-0.64 0.92-1.533 1.66-2.68 2.22-1.153 0.56-2.62 0.84-4.4 0.84z" fill="#000000" fill-rule="nonzero" stroke="none" stroke-width="1" stroke-linecap="butt" stroke-linejoin="miter" stroke-miterlimit="10" stroke-dasharray="" stroke-dashoffset="0" font-family="none" font-weight="none" font-size="none" text-anchor="none" style="mix-blend-mode: normal" data-fill-palette-color="primary" opacity="1"></path></g></svg></g></svg></g><g transform="matrix(1,0,0,1,0,213.38172534527374)"><svg viewBox="0 0 94.67764492489799 38.26629671537623" height="38.26629671537623" width="94.67764492489799"><g transform="matrix(1,0,0,1,0,0)"><svg width="94.67764492489799" viewBox="3.78 -31.95 79.03999999999999 31.95" height="38.26629671537623" data-palette-color="#ffffff"><path d="M17.05 0L17.05 0 6.6 0 6.6-3.43 16.65-3.43Q19.9-3.43 21.26-4.81 22.63-6.2 22.63-8.65L22.63-8.65 22.63-9.55Q22.63-12.05 21.24-13.43 19.85-14.8 16.4-14.8L16.4-14.8 6.63-14.8 6.63-18.07 16.35-18.07Q19.43-18.07 20.74-19.41 22.05-20.75 22.05-23.13L22.05-23.13 22.05-23.58Q22.05-25.93 20.79-27.24 19.53-28.55 16.32-28.55L16.32-28.55 6.53-28.55 6.53-31.95 16.7-31.95Q21.8-31.95 24-29.93 26.2-27.9 26.2-24.23L26.2-24.23 26.2-23.73Q26.2-20.8 24.8-19.13 23.4-17.45 20.45-17.13L20.45-17.13 20.43-16.98Q23.8-16.48 25.33-14.63 26.85-12.78 26.85-9.47L26.85-9.47 26.85-8.45Q26.85-4.48 24.55-2.24 22.25 0 17.05 0ZM7.88-31.95L7.88 0 3.78 0 3.78-31.95 7.88-31.95ZM44.4-31.28L44.4 0 40.25 0 40.25-31.28 44.4-31.28ZM53.97-31.95L53.97-28.48 30.67-28.48 30.67-31.95 53.97-31.95ZM59.37-31.95L63.52-31.95 63.52 0 59.37 0 59.37-31.95ZM78.67-31.95L82.82-31.95 82.82 0 78.67 0 78.67-31.95ZM80.32-14.73L61.74-14.73 61.74-18.23 80.32-18.23 80.32-14.73Z" opacity="1" transform="matrix(1,0,0,1,0,0)" fill="#000000" class="slogan-text-1" data-fill-palette-color="secondary" id="text-1"></path></svg></g></svg></g></svg></g></svg></g><g transform="matrix(1,0,0,1,0,0.629120055151617)"><svg viewBox="0 0 127.55703297640518 251.64802206064996" height="251.64802206064996" width="127.55703297640518"><g><svg xmlns="http://www.w3.org/2000/svg" xmlns:xlink="http://www.w3.org/1999/xlink" version="1.1" x="0" y="0" viewBox="26.373 3.721 46.25999999999999 91.26299999999999" enable-background="new 0 0 100 100" xml:space="preserve" height="251.64802206064996" width="127.55703297640518" class="icon-icon-0" data-fill-palette-color="accent" id="icon-0"><path fill="#000000" d="M55.84 90.075C52.444 90.075 51.937 86.176 51.937 83.85V82.796C55.869 78.828 72.633 60.913 72.633 43.971 72.633 26.426 54.635 7.819 51.559 4.768A2.5 2.5 0 0 0 50.914 4.14L50.479 3.721H49.476L49.377 3.723 48.498 3.734 48.072 4.153A2.5 2.5 0 0 0 47.445 4.769C44.37 7.82 26.373 26.43 26.373 43.972 26.373 60.858 43.029 78.713 47.029 82.756V83.851C47.029 92.068 51.776 94.984 55.841 94.984A2.454 2.454 0 1 0 55.84 90.075M31.281 43.972C31.281 30.076 44.58 14.846 49.503 9.684 54.426 14.845 67.725 30.073 67.725 43.972 67.725 55.977 57.814 68.962 51.937 75.607V66.188L59.9 59.1A2.455 2.455 0 1 0 56.636 55.433L51.936 59.617V54.034L59.9 46.946A2.454 2.454 0 1 0 56.637 43.279L51.936 47.463V41.878L59.9 34.79A2.455 2.455 0 0 0 56.637 31.123L51.936 35.307V25.44A2.454 2.454 0 0 0 47.028 25.44V75.56C41.147 68.9 31.281 55.947 31.281 43.972" data-fill-palette-color="accent"></path></svg></g></svg></g></svg></g><defs></defs></svg><rect width="337.0442212590919" height="200" fill="none" stroke="none" visibility="hidden"></rect></g></svg></g></svg>